# Blender 3.6.2
# www.blender.org
mtllib honeycomb_1.mtl
o Body4.001
v 0.177800 0.142626 0.140970
v 0.177800 0.066426 0.140970
v 0.292100 0.104526 0.140970
v 0.406400 0.066426 0.140970
v 0.406400 0.142626 0.140970
v 0.406400 0.142626 -0.163830
v 0.406400 0.066426 -0.163830
v 0.292100 0.104526 -0.163830
v 0.177800 0.066426 -0.163830
v 0.177800 0.142626 -0.163830
v 0.292100 0.142626 -0.011430
v 0.292100 0.066426 -0.011430
v 0.177800 0.104526 -0.011430
v 0.406400 0.104526 -0.011430
v 0.406400 -0.256224 -0.163830
v 0.406400 -0.332424 -0.163830
v 0.000000 -0.294324 -0.163830
v -0.406400 -0.332424 -0.163830
v -0.406400 -0.256224 -0.163830
v -0.406400 -0.256224 0.293370
v -0.406400 -0.332424 0.293370
v 0.000000 -0.294324 0.293370
v 0.406400 -0.332424 0.293370
v 0.406400 -0.256224 0.293370
v 0.000000 -0.256224 0.064770
v 0.000000 -0.332424 0.064770
v 0.406400 -0.294324 0.064770
v -0.406400 -0.294324 0.064770
v -0.406400 -0.238374 -0.163830
v -0.406400 -0.238374 0.140970
v 0.000000 -0.238374 -0.011430
v 0.406400 -0.238374 0.140970
v 0.406400 -0.238374 -0.163830
v 0.406400 -0.256224 -0.163830
v 0.406400 -0.256224 0.140970
v 0.000000 -0.256224 -0.011430
v -0.406400 -0.256224 0.140970
v -0.406400 -0.256224 -0.163830
v -0.406400 -0.247299 -0.011430
v 0.000000 -0.247299 -0.163830
v 0.406400 -0.247299 -0.011430
v 0.000000 -0.247299 0.140970
v -0.177800 -0.162174 -0.163830
v -0.177800 -0.238374 -0.163830
v -0.292100 -0.200274 -0.163830
v -0.406400 -0.238374 -0.163830
v -0.406400 -0.162174 -0.163830
v -0.406400 -0.162174 0.140970
v -0.406400 -0.238374 0.140970
v -0.292100 -0.200274 0.140970
v -0.177800 -0.238374 0.140970
v -0.177800 -0.162174 0.140970
v -0.292100 -0.162174 -0.011430
v -0.292100 -0.238374 -0.011430
v -0.406400 -0.200274 -0.011430
v -0.177800 -0.200274 -0.011430
v 0.177800 -0.162174 0.140970
v 0.177800 -0.238374 0.140970
v 0.292100 -0.200274 0.140970
v 0.406400 -0.238374 0.140970
v 0.406400 -0.162174 0.140970
v 0.406400 -0.162174 -0.163830
v 0.406400 -0.238374 -0.163830
v 0.292100 -0.200274 -0.163830
v 0.177800 -0.238374 -0.163830
v 0.177800 -0.162174 -0.163830
v 0.292100 -0.162174 -0.011430
v 0.292100 -0.238374 -0.011430
v 0.177800 -0.200274 -0.011430
v 0.406400 -0.200274 -0.011430
v -0.177800 -0.085974 -0.163830
v -0.177800 -0.162174 -0.163830
v -0.292100 -0.124074 -0.163830
v -0.406400 -0.162174 -0.163830
v -0.406400 -0.085974 -0.163830
v -0.406400 -0.085974 0.140970
v -0.406400 -0.162174 0.140970
v -0.292100 -0.124074 0.140970
v -0.177800 -0.162174 0.140970
v -0.177800 -0.085974 0.140970
v -0.292100 -0.085974 -0.011430
v -0.292100 -0.162174 -0.011430
v -0.406400 -0.124074 -0.011430
v -0.177800 -0.124074 -0.011430
v 0.177800 -0.085974 0.140970
v 0.177800 -0.162174 0.140970
v 0.292100 -0.124074 0.140970
v 0.406400 -0.162174 0.140970
v 0.406400 -0.085974 0.140970
v 0.406400 -0.085974 -0.163830
v 0.406400 -0.162174 -0.163830
v 0.292100 -0.124074 -0.163830
v 0.177800 -0.162174 -0.163830
v 0.177800 -0.085974 -0.163830
v 0.292100 -0.085974 -0.011430
v 0.292100 -0.162174 -0.011430
v 0.177800 -0.124074 -0.011430
v 0.406400 -0.124074 -0.011430
v 0.406400 -0.009774 -0.163830
v 0.406400 -0.085974 -0.163830
v 0.000000 -0.047874 -0.163830
v -0.406400 -0.085974 -0.163830
v -0.406400 -0.009774 -0.163830
v -0.406400 -0.009774 0.140970
v -0.406400 -0.085974 0.140970
v 0.000000 -0.047874 0.140970
v 0.406400 -0.085974 0.140970
v 0.406400 -0.009774 0.140970
v 0.000000 -0.009774 -0.011430
v 0.000000 -0.085974 -0.011430
v -0.406400 -0.047874 -0.011430
v 0.406400 -0.047874 -0.011430
v -0.177800 0.066426 -0.163830
v -0.177800 -0.009774 -0.163830
v -0.292100 0.028326 -0.163830
v -0.406400 -0.009774 -0.163830
v -0.406400 0.066426 -0.163830
v -0.406400 0.066426 0.140970
v -0.406400 -0.009774 0.140970
v -0.292100 0.028326 0.140970
v -0.177800 -0.009774 0.140970
v -0.177800 0.066426 0.140970
v -0.292100 0.066426 -0.011430
v -0.292100 -0.009774 -0.011430
v -0.406400 0.028326 -0.011430
v -0.177800 0.028326 -0.011430
v 0.177800 0.066426 0.140970
v 0.177800 -0.009774 0.140970
v 0.292100 0.028326 0.140970
v 0.406400 -0.009774 0.140970
v 0.406400 0.066426 0.140970
v 0.406400 0.066426 -0.163830
v 0.406400 -0.009774 -0.163830
v 0.292100 0.028326 -0.163830
v 0.177800 -0.009774 -0.163830
v 0.177800 0.066426 -0.163830
v 0.292100 0.066426 -0.011430
v 0.292100 -0.009774 -0.011430
v 0.177800 0.028326 -0.011430
v 0.406400 0.028326 -0.011430
v -0.177800 0.142626 -0.163830
v -0.177800 0.066426 -0.163830
v -0.292100 0.104526 -0.163830
v -0.406400 0.066426 -0.163830
v -0.406400 0.142626 -0.163830
v -0.406400 0.142626 0.140970
v -0.406400 0.066426 0.140970
v -0.292100 0.104526 0.140970
v -0.177800 0.066426 0.140970
v -0.177800 0.142626 0.140970
v -0.292100 0.142626 -0.011430
v -0.292100 0.066426 -0.011430
v -0.406400 0.104526 -0.011430
v -0.177800 0.104526 -0.011430
v 0.406400 0.218826 -0.163830
v 0.406400 0.142626 -0.163830
v 0.000000 0.180726 -0.163830
v -0.406400 0.142626 -0.163830
v -0.406400 0.218826 -0.163830
v -0.406400 0.218826 0.140970
v -0.406400 0.142626 0.140970
v 0.000000 0.180726 0.140970
v 0.406400 0.142626 0.140970
v 0.406400 0.218826 0.140970
v 0.000000 0.218826 -0.011430
v 0.000000 0.142626 -0.011430
v -0.406400 0.180726 -0.011430
v 0.406400 0.180726 -0.011430
v -0.406400 0.236676 -0.163830
v -0.406400 0.236676 0.140970
v 0.000000 0.236676 -0.011430
v 0.406400 0.236676 0.140970
v 0.406400 0.236676 -0.163830
v 0.406400 0.218826 -0.163830
v 0.406400 0.218826 0.140970
v 0.000000 0.218826 -0.011430
v -0.406400 0.218826 0.140970
v -0.406400 0.218826 -0.163830
v -0.406400 0.227751 -0.011430
v 0.000000 0.227751 -0.163830
v 0.406400 0.227751 -0.011430
v 0.000000 0.227751 0.140970
v -0.406400 0.274676 -0.163830
v -0.406400 0.274676 -0.074830
v 0.000000 0.274676 -0.119330
v 0.406400 0.274676 -0.074830
v 0.406400 0.274676 -0.163830
v 0.406400 0.236676 -0.163830
v 0.406400 0.236676 -0.074830
v 0.000000 0.236676 -0.119330
v -0.406400 0.236676 -0.074830
v -0.406400 0.236676 -0.163830
v -0.406400 0.255676 -0.119330
v 0.406400 0.255676 -0.119330
v 0.000000 0.255676 -0.163830
v 0.000000 0.255676 -0.074830
v -0.406400 0.274676 -0.055930
v -0.406400 0.236676 -0.055930
v -0.406400 0.255676 -0.011430
v -0.406400 0.236676 0.033070
v -0.406400 0.274676 0.033070
v 0.406400 0.274676 0.033070
v 0.406400 0.236676 0.033070
v 0.406400 0.255676 -0.011430
v 0.406400 0.236676 -0.055930
v 0.406400 0.274676 -0.055930
v 0.000000 0.274676 -0.011430
v 0.000000 0.236676 -0.011430
v 0.000000 0.255676 -0.055930
v 0.000000 0.255676 0.033070
v 0.406400 0.274676 0.051970
v -0.406400 0.274676 0.051970
v 0.000000 0.274676 0.096470
v -0.406400 0.274676 0.140970
v 0.406400 0.274676 0.140970
v 0.406400 0.236676 0.140970
v -0.406400 0.236676 0.140970
v 0.000000 0.236676 0.096470
v -0.406400 0.236676 0.051970
v 0.406400 0.236676 0.051970
v 0.000000 0.255676 0.051970
v 0.000000 0.255676 0.140970
v 0.406400 0.255676 0.096470
v -0.406400 0.255676 0.096470
v -0.406400 0.292526 -0.163830
v -0.406400 0.274676 -0.163830
v -0.406400 0.283601 -0.011430
v -0.406400 0.274676 0.140970
v -0.406400 0.292526 0.140970
v 0.406400 0.292526 -0.163830
v 0.406400 0.274676 -0.163830
v 0.000000 0.283601 -0.163830
v 0.406400 0.292526 0.140970
v 0.406400 0.274676 0.140970
v 0.406400 0.283601 -0.011430
v 0.000000 0.283601 0.140970
v 0.000000 0.292526 -0.011430
v 0.000000 0.274676 -0.011430
v 0.406400 0.368726 -0.163830
v 0.406400 0.292526 -0.163830
v 0.000000 0.330626 -0.163830
v -0.406400 0.292526 -0.163830
v -0.406400 0.368726 -0.163830
v -0.406400 0.368726 0.140970
v -0.406400 0.292526 0.140970
v 0.000000 0.330626 0.140970
v 0.406400 0.292526 0.140970
v 0.406400 0.368726 0.140970
v 0.000000 0.368726 -0.011430
v 0.000000 0.292526 -0.011430
v -0.406400 0.330626 -0.011430
v 0.406400 0.330626 -0.011430
v 0.406400 -0.408624 -0.163830
v 0.406400 -0.484824 -0.163830
v 0.000000 -0.446724 -0.163830
v -0.406400 -0.484824 -0.163830
v -0.406400 -0.408624 -0.163830
v -0.406400 -0.408624 0.293370
v -0.406400 -0.484824 0.293370
v 0.000000 -0.446724 0.293370
v 0.406400 -0.484824 0.293370
v 0.406400 -0.408624 0.293370
v 0.406400 -0.446724 0.064770
v -0.406400 -0.446724 0.064770
v 0.000000 -0.408624 0.064770
v 0.000000 -0.484824 0.064770
v 0.406400 -0.332424 -0.163830
v 0.406400 -0.408624 -0.163830
v 0.000000 -0.370524 -0.163830
v -0.406400 -0.408624 -0.163830
v -0.406400 -0.332424 -0.163830
v -0.406400 -0.332424 0.293370
v -0.406400 -0.408624 0.293370
v 0.000000 -0.370524 0.293370
v 0.406400 -0.408624 0.293370
v 0.406400 -0.332424 0.293370
v 0.000000 -0.332424 0.064770
v 0.000000 -0.408624 0.064770
v 0.406400 -0.370524 0.064770
v -0.406400 -0.370524 0.064770
vn -0.5774 0.5774 0.5774
vn -0.5774 -0.5774 0.5774
vn -0.0000 -0.0000 1.0000
vn 0.5774 -0.5774 0.5774
vn 0.5774 0.5774 0.5774
vn 0.5774 0.5774 -0.5774
vn 0.5774 -0.5774 -0.5774
vn -0.0000 -0.0000 -1.0000
vn -0.5774 -0.5774 -0.5774
vn -0.5774 0.5774 -0.5774
vn -0.0000 1.0000 -0.0000
vn -0.0000 -1.0000 -0.0000
vn -1.0000 -0.0000 -0.0000
vn 1.0000 -0.0000 -0.0000
vn -0.5774 0.5773 -0.5774
vn 0.5773 0.5773 0.5774
vn 0.5774 0.5773 -0.5774
vn 0.5774 -0.5773 0.5774
vn -0.5774 -0.5773 -0.5774
vn -0.5774 0.5773 0.5774
vn 0.5773 0.5773 -0.5774
vn 0.5773 -0.5774 -0.5774
vn 0.5773 -0.5774 0.5774
vn -0.5773 -0.5774 -0.5774
vn -0.5774 -0.5773 0.5774
vn 0.5774 -0.5773 -0.5774
vt 0.000000 1.008420
vt 0.000000 -0.009513
vt 1.817150 0.499453
vt 3.634300 -0.009513
vt 3.634300 1.008420
vt 2.957790 -0.039764
vt 2.957790 2.390633
vt 1.482212 1.175435
vt 0.006634 2.390633
vt 0.006634 -0.039764
vt 0.003034 2.005982
vt 0.003034 -0.001279
vt 1.007490 1.002352
vt 2.011945 -0.001279
vt 2.011945 2.005982
vt 0.000000 0.971593
vt 0.000000 -0.016116
vt 0.500483 0.477740
vt 1.000967 -0.016116
vt 1.000967 0.971593
vt -11.430000 15.240000
vt -11.430000 -15.240000
vt 0.000000 -0.000000
vt 11.430000 -15.240000
vt 11.430000 15.240000
vt 2.500088 4.025123
vt 0.005565 4.020053
vt 1.253018 2.020548
vt 0.005947 0.015973
vt 2.500470 0.021042
vt 0.000000 1.002286
vt 0.501050 0.501143
vt 1.002100 0.000000
vt 1.002100 1.002286
vt 0.016663 -0.003381
vt 2.278089 -0.003381
vt 1.147375 1.441640
vt 2.278088 2.886660
vt 0.016663 2.886660
vt 4.011240 -0.003969
vt 4.006170 2.490554
vt 2.006665 1.243102
vt 0.002090 2.490173
vt 0.007159 -0.004351
vt 0.002870 1.002464
vt 0.002870 -0.009020
vt 3.504206 0.496722
vt 7.005543 -0.009020
vt 7.005543 1.002464
s 1
usemtl cardboard_face
f 1/1/1 2/2/2 3/3/3
f 3/3/3 2/2/2 4/4/4
f 3/3/3 4/4/4 5/5/5
f 5/5/5 1/1/1 3/3/3
f 6/1/6 7/2/7 8/3/8
f 8/3/8 7/2/7 9/4/9
f 8/3/8 9/4/9 10/5/10
f 10/5/10 6/1/6 8/3/8
f 15/1/6 16/2/7 17/3/8
f 17/3/8 16/2/7 18/4/9
f 17/3/8 18/4/9 19/5/10
f 19/5/10 15/1/6 17/3/8
f 20/1/1 21/2/2 22/3/3
f 22/3/3 21/2/2 23/4/4
f 22/3/3 23/4/4 24/5/5
f 24/5/5 20/1/1 22/3/3
f 43/1/6 44/2/7 45/3/8
f 45/3/8 44/2/7 46/4/9
f 45/3/8 46/4/9 47/5/10
f 47/5/10 43/1/6 45/3/8
f 48/1/1 49/2/2 50/3/3
f 50/3/3 49/2/2 51/4/4
f 50/3/3 51/4/4 52/5/5
f 52/5/5 48/1/1 50/3/3
f 47/21/10 48/22/1 53/23/11
f 53/23/11 48/22/1 52/24/5
f 53/23/11 52/24/5 43/25/6
f 43/25/6 47/21/10 53/23/11
f 44/24/7 51/25/4 54/23/12
f 54/23/12 51/25/4 49/21/2
f 54/23/12 49/21/2 46/22/9
f 46/22/9 44/24/7 54/23/12
f 57/1/1 58/2/2 59/3/3
f 59/3/3 58/2/2 60/4/4
f 59/3/3 60/4/4 61/5/5
f 61/5/5 57/1/1 59/3/3
f 62/1/6 63/2/7 64/3/8
f 64/3/8 63/2/7 65/4/9
f 64/3/8 65/4/9 66/5/10
f 66/5/10 62/1/6 64/3/8
f 57/22/1 61/24/5 67/23/11
f 67/23/11 61/24/5 62/25/6
f 67/23/11 62/25/6 66/21/10
f 66/21/10 57/22/1 67/23/11
f 65/22/9 63/24/7 68/23/12
f 68/23/12 63/24/7 60/25/4
f 68/23/12 60/25/4 58/21/2
f 58/21/2 65/22/9 68/23/12
f 71/1/6 72/2/7 73/3/8
f 73/3/8 72/2/7 74/4/9
f 73/3/8 74/4/9 75/5/10
f 75/5/10 71/1/6 73/3/8
f 76/1/1 77/2/2 78/3/3
f 78/3/3 77/2/2 79/4/4
f 78/3/3 79/4/4 80/5/5
f 80/5/5 76/1/1 78/3/3
f 85/1/1 86/2/2 87/3/3
f 87/3/3 86/2/2 88/4/4
f 87/3/3 88/4/4 89/5/5
f 89/5/5 85/1/1 87/3/3
f 90/1/6 91/2/7 92/3/8
f 92/3/8 91/2/7 93/4/9
f 92/3/8 93/4/9 94/5/10
f 94/5/10 90/1/6 92/3/8
f 99/1/6 100/2/7 101/3/8
f 101/3/8 100/2/7 102/4/9
f 101/3/8 102/4/9 103/5/10
f 103/5/10 99/1/6 101/3/8
f 104/1/1 105/2/2 106/3/3
f 106/3/3 105/2/2 107/4/4
f 106/3/3 107/4/4 108/5/5
f 108/5/5 104/1/1 106/3/3
f 113/1/6 114/2/7 115/3/8
f 115/3/8 114/2/7 116/4/9
f 115/3/8 116/4/9 117/5/10
f 117/5/10 113/1/6 115/3/8
f 118/1/1 119/2/2 120/3/3
f 120/3/3 119/2/2 121/4/4
f 120/3/3 121/4/4 122/5/5
f 122/5/5 118/1/1 120/3/3
f 127/1/1 128/2/2 129/3/3
f 129/3/3 128/2/2 130/4/4
f 129/3/3 130/4/4 131/5/5
f 131/5/5 127/1/1 129/3/3
f 132/1/6 133/2/7 134/3/8
f 134/3/8 133/2/7 135/4/9
f 134/3/8 135/4/9 136/5/10
f 136/5/10 132/1/6 134/3/8
f 141/1/6 142/2/7 143/3/8
f 143/3/8 142/2/7 144/4/9
f 143/3/8 144/4/9 145/5/10
f 145/5/10 141/1/6 143/3/8
f 146/1/1 147/2/2 148/3/3
f 148/3/3 147/2/2 149/4/4
f 148/3/3 149/4/4 150/5/5
f 150/5/5 146/1/1 148/3/3
f 155/1/6 156/2/7 157/3/8
f 157/3/8 156/2/7 158/4/9
f 157/3/8 158/4/9 159/5/10
f 159/5/10 155/1/6 157/3/8
f 160/1/1 161/2/2 162/3/3
f 162/3/3 161/2/2 163/4/4
f 162/3/3 163/4/4 164/5/5
f 164/5/5 160/1/1 162/3/3
f 239/45/6 240/46/7 241/47/8
f 241/47/8 240/46/7 242/48/9
f 241/47/8 242/48/9 243/49/10
f 243/49/10 239/45/6 241/47/8
f 244/45/1 245/46/2 246/47/3
f 246/47/3 245/46/2 247/48/4
f 246/47/3 247/48/4 248/49/5
f 248/49/5 244/45/1 246/47/3
f 253/1/6 254/2/7 255/3/8
f 255/3/8 254/2/7 256/4/9
f 255/3/8 256/4/9 257/5/10
f 257/5/10 253/1/6 255/3/8
f 258/1/1 259/2/2 260/3/3
f 260/3/3 259/2/2 261/4/4
f 260/3/3 261/4/4 262/5/5
f 262/5/5 258/1/1 260/3/3
f 267/1/6 268/2/7 269/3/8
f 269/3/8 268/2/7 270/4/9
f 269/3/8 270/4/9 271/5/10
f 271/5/10 267/1/6 269/3/8
f 272/1/1 273/2/2 274/3/3
f 274/3/3 273/2/2 275/4/4
f 274/3/3 275/4/4 276/5/5
f 276/5/5 272/1/1 274/3/3
usemtl cardboard_top.001
f 1/6/1 5/7/5 11/8/11
f 11/8/11 5/7/5 6/9/6
f 11/8/11 6/9/6 10/10/10
f 10/10/10 1/6/1 11/8/11
f 9/6/9 7/7/7 12/8/12
f 12/8/12 7/7/7 4/9/4
f 12/8/12 4/9/4 2/10/2
f 2/10/2 9/6/9 12/8/12
f 15/6/6 19/7/10 25/8/11
f 25/8/11 19/7/10 20/9/1
f 25/8/11 20/9/1 24/10/5
f 24/10/5 15/6/6 25/8/11
f 23/6/4 21/7/2 26/8/12
f 26/8/12 21/7/2 18/9/9
f 26/8/12 18/9/9 16/10/7
f 16/10/7 23/6/4 26/8/12
f 75/6/10 76/7/1 81/8/11
f 81/8/11 76/7/1 80/9/5
f 81/8/11 80/9/5 71/10/6
f 71/10/6 75/6/10 81/8/11
f 72/6/7 79/7/4 82/8/12
f 82/8/12 79/7/4 77/9/2
f 82/8/12 77/9/2 74/10/9
f 74/10/9 72/6/7 82/8/12
f 85/6/1 89/7/5 95/8/11
f 95/8/11 89/7/5 90/9/6
f 95/8/11 90/9/6 94/10/10
f 94/10/10 85/6/1 95/8/11
f 93/6/9 91/7/7 96/8/12
f 96/8/12 91/7/7 88/9/4
f 96/8/12 88/9/4 86/10/2
f 86/10/2 93/6/9 96/8/12
f 103/6/10 104/7/1 109/8/11
f 109/8/11 104/7/1 108/9/5
f 109/8/11 108/9/5 99/10/6
f 99/10/6 103/6/10 109/8/11
f 100/6/7 107/7/4 110/8/12
f 110/8/12 107/7/4 105/9/2
f 110/8/12 105/9/2 102/10/9
f 102/10/9 100/6/7 110/8/12
f 117/6/10 118/7/1 123/8/11
f 123/8/11 118/7/1 122/9/5
f 123/8/11 122/9/5 113/10/6
f 113/10/6 117/6/10 123/8/11
f 114/6/7 121/7/4 124/8/12
f 124/8/12 121/7/4 119/9/2
f 124/8/12 119/9/2 116/10/9
f 116/10/9 114/6/7 124/8/12
f 127/6/1 131/7/5 137/8/11
f 137/8/11 131/7/5 132/9/6
f 137/8/11 132/9/6 136/10/10
f 136/10/10 127/6/1 137/8/11
f 135/6/9 133/7/7 138/8/12
f 138/8/12 133/7/7 130/9/4
f 138/8/12 130/9/4 128/10/2
f 128/10/2 135/6/9 138/8/12
f 145/6/10 146/7/1 151/8/11
f 151/8/11 146/7/1 150/9/5
f 151/8/11 150/9/5 141/10/6
f 141/10/6 145/6/10 151/8/11
f 142/6/7 149/7/4 152/8/12
f 152/8/12 149/7/4 147/9/2
f 152/8/12 147/9/2 144/10/9
f 144/10/9 142/6/7 152/8/12
f 159/6/10 160/7/1 165/8/11
f 165/8/11 160/7/1 164/9/5
f 165/8/11 164/9/5 155/10/6
f 155/10/6 159/6/10 165/8/11
f 156/6/7 163/7/4 166/8/12
f 166/8/12 163/7/4 161/9/2
f 166/8/12 161/9/2 158/10/9
f 158/10/9 156/6/7 166/8/12
f 243/6/10 244/7/1 249/8/11
f 249/8/11 244/7/1 248/9/5
f 249/8/11 248/9/5 239/10/6
f 239/10/6 243/6/10 249/8/11
f 240/6/7 247/7/4 250/8/12
f 250/8/12 247/7/4 245/9/2
f 250/8/12 245/9/2 242/10/9
f 242/10/9 240/6/7 250/8/12
f 253/1/6 257/2/10 265/3/11
f 265/3/11 257/2/10 258/4/1
f 265/3/11 258/4/1 262/5/5
f 262/5/5 253/1/6 265/3/11
f 261/1/4 259/2/2 266/3/12
f 266/3/12 259/2/2 256/4/9
f 266/3/12 256/4/9 254/5/7
f 254/5/7 261/1/4 266/3/12
f 267/1/6 271/2/10 277/3/11
f 277/3/11 271/2/10 272/4/1
f 277/3/11 272/4/1 276/5/5
f 276/5/5 267/1/6 277/3/11
f 275/1/4 273/2/2 278/3/12
f 278/3/12 273/2/2 270/4/9
f 278/3/12 270/4/9 268/5/7
f 268/5/7 275/1/4 278/3/12
usemtl cardboard_sides
f 10/1/10 9/2/9 13/3/13
f 13/3/13 9/2/9 2/4/2
f 13/3/13 2/4/2 1/5/1
f 1/5/1 10/1/10 13/3/13
f 5/1/5 4/2/4 14/3/14
f 14/3/14 4/2/4 7/4/7
f 14/3/14 7/4/7 6/5/6
f 6/5/6 5/1/5 14/3/14
f 24/1/5 23/2/4 27/3/14
f 27/3/14 23/2/4 16/4/7
f 27/3/14 16/4/7 15/5/6
f 15/5/6 24/1/5 27/3/14
f 19/1/10 18/2/9 28/3/13
f 28/3/13 18/2/9 21/4/2
f 28/3/13 21/4/2 20/5/1
f 20/5/1 19/1/10 28/3/13
f 47/1/10 46/2/9 55/3/13
f 55/3/13 46/2/9 49/4/2
f 55/3/13 49/4/2 48/5/1
f 48/5/1 47/1/10 55/3/13
f 52/1/5 51/2/4 56/3/14
f 56/3/14 51/2/4 44/4/7
f 56/3/14 44/4/7 43/5/6
f 43/5/6 52/1/5 56/3/14
f 66/1/10 65/2/9 69/3/13
f 69/3/13 65/2/9 58/4/2
f 69/3/13 58/4/2 57/5/1
f 57/5/1 66/1/10 69/3/13
f 61/1/5 60/2/4 70/3/14
f 70/3/14 60/2/4 63/4/7
f 70/3/14 63/4/7 62/5/6
f 62/5/6 61/1/5 70/3/14
f 75/1/10 74/2/9 83/3/13
f 83/3/13 74/2/9 77/4/2
f 83/3/13 77/4/2 76/5/1
f 76/5/1 75/1/10 83/3/13
f 80/1/5 79/2/4 84/3/14
f 84/3/14 79/2/4 72/4/7
f 84/3/14 72/4/7 71/5/6
f 71/5/6 80/1/5 84/3/14
f 94/1/10 93/2/9 97/3/13
f 97/3/13 93/2/9 86/4/2
f 97/3/13 86/4/2 85/5/1
f 85/5/1 94/1/10 97/3/13
f 89/1/5 88/2/4 98/3/14
f 98/3/14 88/2/4 91/4/7
f 98/3/14 91/4/7 90/5/6
f 90/5/6 89/1/5 98/3/14
f 103/1/10 102/2/9 111/3/13
f 111/3/13 102/2/9 105/4/2
f 111/3/13 105/4/2 104/5/1
f 104/5/1 103/1/10 111/3/13
f 108/1/5 107/2/4 112/3/14
f 112/3/14 107/2/4 100/4/7
f 112/3/14 100/4/7 99/5/6
f 99/5/6 108/1/5 112/3/14
f 117/1/10 116/2/9 125/3/13
f 125/3/13 116/2/9 119/4/2
f 125/3/13 119/4/2 118/5/1
f 118/5/1 117/1/10 125/3/13
f 122/1/5 121/2/4 126/3/14
f 126/3/14 121/2/4 114/4/7
f 126/3/14 114/4/7 113/5/6
f 113/5/6 122/1/5 126/3/14
f 136/1/10 135/2/9 139/3/13
f 139/3/13 135/2/9 128/4/2
f 139/3/13 128/4/2 127/5/1
f 127/5/1 136/1/10 139/3/13
f 131/1/5 130/2/4 140/3/14
f 140/3/14 130/2/4 133/4/7
f 140/3/14 133/4/7 132/5/6
f 132/5/6 131/1/5 140/3/14
f 145/1/10 144/2/9 153/3/13
f 153/3/13 144/2/9 147/4/2
f 153/3/13 147/4/2 146/5/1
f 146/5/1 145/1/10 153/3/13
f 150/1/5 149/2/4 154/3/14
f 154/3/14 149/2/4 142/4/7
f 154/3/14 142/4/7 141/5/6
f 141/5/6 150/1/5 154/3/14
f 159/1/10 158/2/9 167/3/13
f 167/3/13 158/2/9 161/4/2
f 167/3/13 161/4/2 160/5/1
f 160/5/1 159/1/10 167/3/13
f 164/1/5 163/2/4 168/3/14
f 168/3/14 163/2/4 156/4/7
f 168/3/14 156/4/7 155/5/6
f 155/5/6 164/1/5 168/3/14
f 243/1/10 242/2/9 251/3/13
f 251/3/13 242/2/9 245/4/2
f 251/3/13 245/4/2 244/5/1
f 244/5/1 243/1/10 251/3/13
f 248/1/5 247/2/4 252/3/14
f 252/3/14 247/2/4 240/4/7
f 252/3/14 240/4/7 239/5/6
f 239/5/6 248/1/5 252/3/14
f 262/1/5 261/2/4 263/3/14
f 263/3/14 261/2/4 254/4/7
f 263/3/14 254/4/7 253/5/6
f 253/5/6 262/1/5 263/3/14
f 257/1/10 256/2/9 264/3/13
f 264/3/13 256/2/9 259/4/2
f 264/3/13 259/4/2 258/5/1
f 258/5/1 257/1/10 264/3/13
f 276/1/5 275/2/4 279/3/14
f 279/3/14 275/2/4 268/4/7
f 279/3/14 268/4/7 267/5/6
f 267/5/6 276/1/5 279/3/14
f 271/1/10 270/2/9 280/3/13
f 280/3/13 270/2/9 273/4/2
f 280/3/13 273/4/2 272/5/1
f 272/5/1 271/1/10 280/3/13
usemtl plywood_face
f 29/11/15 30/12/1 31/13/11
f 31/13/11 30/12/1 32/14/16
f 31/13/11 32/14/16 33/15/17
f 33/15/17 29/11/15 31/13/11
f 34/11/7 35/12/18 36/13/12
f 36/13/12 35/12/18 37/14/2
f 36/13/12 37/14/2 38/15/19
f 38/15/19 34/11/7 36/13/12
f 169/11/15 170/12/20 171/13/11
f 171/13/11 170/12/20 172/14/16
f 171/13/11 172/14/16 173/15/21
f 173/15/21 169/11/15 171/13/11
f 174/11/22 175/12/23 176/13/12
f 176/13/12 175/12/23 177/14/2
f 176/13/12 177/14/2 178/15/24
f 178/15/24 174/11/22 176/13/12
f 225/11/15 229/12/20 237/13/11
f 237/13/11 229/12/20 233/14/16
f 237/13/11 233/14/16 230/15/21
f 230/15/21 225/11/15 237/13/11
f 231/11/26 234/12/18 238/13/12
f 238/13/12 234/12/18 228/14/25
f 238/13/12 228/14/25 226/15/19
f 226/15/19 231/11/26 238/13/12
usemtl Plywood_end_grain
f 29/16/15 38/17/19 39/18/13
f 39/18/13 38/17/19 37/19/2
f 39/18/13 37/19/2 30/20/1
f 30/20/1 29/16/15 39/18/13
f 33/16/17 34/17/7 40/18/8
f 40/18/8 34/17/7 38/19/19
f 40/18/8 38/19/19 29/20/15
f 29/20/15 33/16/17 40/18/8
f 32/16/16 35/17/18 41/18/14
f 41/18/14 35/17/18 34/19/7
f 41/18/14 34/19/7 33/20/17
f 33/20/17 32/16/16 41/18/14
f 30/16/1 37/17/2 42/18/3
f 42/18/3 37/17/2 35/19/18
f 42/18/3 35/19/18 32/20/16
f 32/20/16 30/16/1 42/18/3
f 169/16/15 178/17/24 179/18/13
f 179/18/13 178/17/24 177/19/2
f 179/18/13 177/19/2 170/20/20
f 170/20/20 169/16/15 179/18/13
f 173/16/21 174/17/22 180/18/8
f 180/18/8 174/17/22 178/19/24
f 180/18/8 178/19/24 169/20/15
f 169/20/15 173/16/21 180/18/8
f 172/16/16 175/17/23 181/18/14
f 181/18/14 175/17/23 174/19/22
f 181/18/14 174/19/22 173/20/21
f 173/20/21 172/16/16 181/18/14
f 170/16/20 177/17/2 182/18/3
f 182/18/3 177/17/2 175/19/23
f 182/18/3 175/19/23 172/20/16
f 172/20/16 170/16/20 182/18/3
f 225/16/15 226/17/19 227/18/13
f 227/18/13 226/17/19 228/19/25
f 227/18/13 228/19/25 229/20/20
f 229/20/20 225/16/15 227/18/13
f 230/16/21 231/17/26 232/18/8
f 232/18/8 231/17/26 226/19/19
f 232/18/8 226/19/19 225/20/15
f 225/20/15 230/16/21 232/18/8
f 233/16/16 234/17/18 235/18/14
f 235/18/14 234/17/18 231/19/26
f 235/18/14 231/19/26 230/20/21
f 230/20/21 233/16/16 235/18/14
f 229/16/20 228/17/25 236/18/3
f 236/18/3 228/17/25 234/19/18
f 236/18/3 234/19/18 233/20/16
f 233/20/16 229/16/20 236/18/3
usemtl 2x4_long
f 183/26/10 184/27/1 185/28/11
f 185/28/11 184/27/1 186/29/5
f 185/28/11 186/29/5 187/30/6
f 187/30/6 183/26/10 185/28/11
f 188/26/7 189/27/4 190/28/12
f 190/28/12 189/27/4 191/29/2
f 190/28/12 191/29/2 192/30/9
f 192/30/9 188/26/7 190/28/12
f 197/26/10 201/27/1 207/28/11
f 207/28/11 201/27/1 202/29/5
f 207/28/11 202/29/5 206/30/6
f 206/30/6 197/26/10 207/28/11
f 205/26/7 203/27/4 208/28/12
f 208/28/12 203/27/4 200/29/2
f 208/28/12 200/29/2 198/30/9
f 198/30/9 205/26/7 208/28/12
f 211/40/6 212/41/10 213/42/11
f 213/42/11 212/41/10 214/43/1
f 213/42/11 214/43/1 215/44/5
f 215/44/5 211/40/6 213/42/11
f 216/40/4 217/41/2 218/42/12
f 218/42/12 217/41/2 219/43/9
f 218/42/12 219/43/9 220/44/7
f 220/44/7 216/40/4 218/42/12
usemtl 2x4_end_grain
f 183/31/10 192/23/9 193/32/13
f 193/32/13 192/23/9 191/33/2
f 193/32/13 191/33/2 184/34/1
f 184/34/1 183/31/10 193/32/13
f 186/31/5 189/23/4 194/32/14
f 194/32/14 189/23/4 188/33/7
f 194/32/14 188/33/7 187/34/6
f 187/34/6 186/31/5 194/32/14
f 197/31/10 198/23/9 199/32/13
f 199/32/13 198/23/9 200/33/2
f 199/32/13 200/33/2 201/34/1
f 201/34/1 197/31/10 199/32/13
f 202/31/5 203/23/4 204/32/14
f 204/32/14 203/23/4 205/33/7
f 204/32/14 205/33/7 206/34/6
f 206/34/6 202/31/5 204/32/14
f 215/31/5 216/23/4 223/32/14
f 223/32/14 216/23/4 220/33/7
f 223/32/14 220/33/7 211/34/6
f 211/34/6 215/31/5 223/32/14
f 212/31/10 219/23/9 224/32/13
f 224/32/13 219/23/9 217/33/2
f 224/32/13 217/33/2 214/34/1
f 214/34/1 212/31/10 224/32/13
usemtl 2x4_side
f 187/35/6 188/36/7 195/37/8
f 195/37/8 188/36/7 192/38/9
f 195/37/8 192/38/9 183/39/10
f 183/39/10 187/35/6 195/37/8
f 184/35/1 191/36/2 196/37/3
f 196/37/3 191/36/2 189/38/4
f 196/37/3 189/38/4 186/39/5
f 186/39/5 184/35/1 196/37/3
f 206/35/6 205/36/7 209/37/8
f 209/37/8 205/36/7 198/38/9
f 209/37/8 198/38/9 197/39/10
f 197/39/10 206/35/6 209/37/8
f 201/35/1 200/36/2 210/37/3
f 210/37/3 200/36/2 203/38/4
f 210/37/3 203/38/4 202/39/5
f 202/39/5 201/35/1 210/37/3
f 211/35/6 220/36/7 221/37/8
f 221/37/8 220/36/7 219/38/9
f 221/37/8 219/38/9 212/39/10
f 212/39/10 211/35/6 221/37/8
f 214/35/1 217/36/2 222/37/3
f 222/37/3 217/36/2 216/38/4
f 222/37/3 216/38/4 215/39/5
f 215/39/5 214/35/1 222/37/3
